<?xml version="1.0" encoding="UTF-8" standalone="no"?>
<svg width="44px" height="44px" viewBox="0 0 44 44" version="1.1" xmlns="http://www.w3.org/2000/svg" xmlns:xlink="http://www.w3.org/1999/xlink" xmlns:sketch="http://www.bohemiancoding.com/sketch/ns">
    <!-- Generator: Sketch 3.4 (15588) - http://www.bohemiancoding.com/sketch -->
    <title>bag</title>
    <desc>Created with Sketch.</desc>
    <defs></defs>
    <g id="Page-1" stroke="none" stroke-width="1" fill="none" fill-rule="evenodd" sketch:type="MSPage">
        <g id="bag" sketch:type="MSLayerGroup">
            <circle id="logo" fill="#FFFFFF" sketch:type="MSShapeGroup" cx="22" cy="22" r="22"></circle>
            <path d="M25.8461538,11.5555556 L25.8461538,5.75555556 C25.8461538,5.34 25.5,5 25.0769231,5 L18.9230769,5 C18.5,5 18.1538462,5.34 18.1538462,5.75555556 L18.1538462,11.5555556 L15.8461538,11.5555556 C13.7307692,11.5555556 12,13.2555556 12,15.3333333 L12,31.9555556 C12,34.0333333 13.7307692,35.7333333 15.8461538,35.7333333 L15.8461538,36.1111111 C15.8461538,37.1688889 16.6923077,38 17.7692308,38 C18.8461538,38 19.6923077,37.1688889 19.6923077,36.1111111 C19.6923077,35.9977778 19.6923077,35.8466667 19.6538462,35.7333333 L24.3461538,35.7333333 C24.3076923,35.8466667 24.3076923,35.9977778 24.3076923,36.1111111 C24.3076923,37.1688889 25.1538462,38 26.2307692,38 C27.3076923,38 28.1538462,37.1688889 28.1538462,36.1111111 C28.1538462,35.9977778 28.1538462,35.8466667 28.1153846,35.7333333 C30.2692308,35.7333333 32,34.0333333 32,31.9555556 L32,15.3333333 C32,13.2555556 30.2692308,11.5555556 28.1538462,11.5555556 L25.8461538,11.5555556 Z M19.6923077,7 L24.3076923,7 L24.3076923,11.5555556 L19.6923077,11.5555556 L19.6923077,7 L19.6923077,7 Z M18.9230769,16.0133333 L20.0769231,17.1466667 L20.0769231,21.7555556 L17.7692308,21.7555556 L17.7692308,17.1466667 L18.9230769,16.0133333 L18.9230769,16.0133333 Z M15.8461538,13.0666667 L18.1538462,13.0666667 L18.1538462,14.6533333 L16.4615385,16.3155556 C16.3076923,16.4666667 16.2307692,16.6555556 16.2307692,16.8444444 L16.2307692,22.5111111 C16.2307692,22.9266667 16.5769231,23.2666667 17,23.2666667 L20.8461538,23.2666667 C21.2692308,23.2666667 21.6153846,22.9266667 21.6153846,22.5111111 L21.6153846,16.8444444 C21.6153846,16.6555556 21.5384615,16.4666667 21.3846154,16.3155556 L19.6923077,14.6533333 L19.6923077,13.0666667 L28.1538462,13.0666667 C29.4230769,13.0666667 30.4615385,14.0866667 30.4615385,15.3333333 L30.4615385,29.6888889 L13.5384615,29.6888889 L13.5384615,15.3333333 C13.5384615,14.0866667 14.5769231,13.0666667 15.8461538,13.0666667 L15.8461538,13.0666667 Z M17.7692308,36.4888889 C17.5384615,36.4888889 17.3846154,36.3377778 17.3846154,36.1111111 C17.3846154,35.8844444 17.5384615,35.7333333 17.7692308,35.7333333 C18,35.7333333 18.1538462,35.8844444 18.1538462,36.1111111 C18.1538462,36.3377778 18,36.4888889 17.7692308,36.4888889 L17.7692308,36.4888889 Z M26.2307692,36.4888889 C26,36.4888889 25.8461538,36.3377778 25.8461538,36.1111111 C25.8461538,35.8844444 26,35.7333333 26.2307692,35.7333333 C26.4615385,35.7333333 26.6153846,35.8844444 26.6153846,36.1111111 C26.6153846,36.3377778 26.4615385,36.4888889 26.2307692,36.4888889 L26.2307692,36.4888889 Z M28.1538462,34.2222222 L15.8461538,34.2222222 C14.5769231,34.2222222 13.5384615,33.2022222 13.5384615,31.9555556 L13.5384615,31.2 L30.4615385,31.2 L30.4615385,31.9555556 C30.4615385,33.2022222 29.4230769,34.2222222 28.1538462,34.2222222 L28.1538462,34.2222222 Z" id="Shape" fill="#000000" sketch:type="MSShapeGroup"></path>
        </g>
    </g>
</svg>