<?xml version="1.0" encoding="UTF-8" standalone="no"?>
<svg width="44px" height="44px" viewBox="0 0 44 44" version="1.1" xmlns="http://www.w3.org/2000/svg" xmlns:xlink="http://www.w3.org/1999/xlink" xmlns:sketch="http://www.bohemiancoding.com/sketch/ns">
    <!-- Generator: Sketch 3.4 (15588) - http://www.bohemiancoding.com/sketch -->
    <title>cart</title>
    <desc>Created with Sketch.</desc>
    <defs></defs>
    <g id="Page-1" stroke="none" stroke-width="1" fill="none" fill-rule="evenodd" sketch:type="MSPage">
        <g id="cart" sketch:type="MSLayerGroup">
            <circle id="logo" fill="#FFFFFF" sketch:type="MSShapeGroup" cx="22" cy="22" r="22"></circle>
            <path d="M31.3652706,27.8650714 L14.7431529,27.8650714 C14.1212235,27.8650714 13.5839529,27.4313571 13.4544941,26.8244857 L10.9107765,14.9068714 L8.52221176,14.7304286 C7.79651765,14.6765429 7.25167059,14.0463429 7.30536471,13.3225 C7.35905882,12.5983286 7.99416471,12.0552 8.71689412,12.1087571 L12.0913882,12.3581429 C12.6754353,12.4011857 13.1609882,12.8237286 13.2828706,13.3951143 L15.8104471,25.2365 L30.3016,25.2365 L32.2026353,16.4327571 C32.3554824,15.7230429 33.0591059,15.2706 33.768,15.4247 C34.4795294,15.5774857 34.9318118,16.2766857 34.7786353,16.9860714 L32.6539294,26.8271143 C32.5224941,27.433 31.9862118,27.8650714 31.3652706,27.8650714 L31.3652706,27.8650714 Z" id="Shape" fill="#000000" sketch:type="MSShapeGroup"></path>
            <ellipse id="Oval" fill="#000000" sketch:type="MSShapeGroup" cx="17.6176" cy="32.1673857" rx="2.62442353" ry="2.61772857"></ellipse>
            <ellipse id="Oval" fill="#000000" sketch:type="MSShapeGroup" cx="28.6993412" cy="32.1673857" rx="2.62442353" ry="2.61772857"></ellipse>
            <path d="M16.9304471,19.4802571 C16.2027765,19.4802571 15.6128,18.8917857 15.6128,18.1659714 C15.6128,17.4401571 16.2027765,16.8516857 16.9304471,16.8516857 L29.1783059,16.8516857 C29.9059765,16.8516857 30.4959529,17.4401571 30.4959529,18.1659714 C30.4959529,18.8917857 29.9056471,19.4802571 29.1779765,19.4802571 L16.9304471,19.4802571 Z" id="Shape" fill="#000000" sketch:type="MSShapeGroup"></path>
            <path d="M28.3033882,23.6334 L17.8050353,23.6334 C17.0773647,23.6334 16.4873882,23.0449286 16.4873882,22.3191143 C16.4873882,21.5933 17.0773647,21.0048286 17.8050353,21.0048286 L28.3033882,21.0048286 C29.0310588,21.0048286 29.6210353,21.5933 29.6210353,22.3191143 C29.6210353,23.0449286 29.0310588,23.6334 28.3033882,23.6334 L28.3033882,23.6334 Z" id="Shape" fill="#000000" sketch:type="MSShapeGroup"></path>
        </g>
    </g>
</svg>