<?xml version="1.0" encoding="UTF-8" standalone="no"?>
<svg width="44px" height="44px" viewBox="0 0 44 44" version="1.1" xmlns="http://www.w3.org/2000/svg" xmlns:xlink="http://www.w3.org/1999/xlink" xmlns:sketch="http://www.bohemiancoding.com/sketch/ns">
    <!-- Generator: Sketch 3.4 (15588) - http://www.bohemiancoding.com/sketch -->
    <title>home</title>
    <desc>Created with Sketch.</desc>
    <defs></defs>
    <g id="Page-1" stroke="none" stroke-width="1" fill="none" fill-rule="evenodd" sketch:type="MSPage">
        <g id="home" sketch:type="MSLayerGroup">
            <circle id="logo" fill="#FFFFFF" sketch:type="MSShapeGroup" cx="22" cy="22" r="22"></circle>
            <path d="M14.03125,32.3359482 L18.1914063,32.3359482 L18.1914063,24.0100094 L25.8085938,24.0100094 L25.8085938,32.3359482 L29.8515625,32.3359482 L29.8515625,19.781524 L21.9877411,11.8630927 L14.03125,19.8748373 L14.03125,32.3359482 Z M32.1953125,22.14155 L32.1953125,32.3359482 L32.1953125,34.6979167 L29.8515625,34.6979167 L14.03125,34.6979167 L11.6875,34.6979167 L11.6875,32.3359482 L11.6875,22.2348633 L9.90837893,24.0263394 L7.00574924,21.1035526 L21.962715,6.04271905 L21.9900648,6.07025886 L22.015091,6.04505886 L27.2148438,11.280921 L27.2148438,8.18482082 L26.921875,8.18482082 L26.921875,7.00383659 L31.3164063,7.00383659 L31.3164063,8.18482082 L31.0234375,8.18482082 L31.0234375,15.0935785 L31.0012071,15.0935785 L36.954291,21.0880032 L34.0516613,24.0107901 L32.1953125,22.14155 Z" id="Shape" fill="#000000" sketch:type="MSShapeGroup"></path>
        </g>
    </g>
</svg>