<?xml version="1.0" encoding="UTF-8" standalone="no"?>
<svg width="44px" height="44px" viewBox="0 0 44 44" version="1.1" xmlns="http://www.w3.org/2000/svg" xmlns:xlink="http://www.w3.org/1999/xlink" xmlns:sketch="http://www.bohemiancoding.com/sketch/ns">
    <!-- Generator: Sketch 3.4 (15588) - http://www.bohemiancoding.com/sketch -->
    <title>work</title>
    <desc>Created with Sketch.</desc>
    <defs></defs>
    <g id="Page-1" stroke="none" stroke-width="1" fill="none" fill-rule="evenodd" sketch:type="MSPage">
        <g id="work" sketch:type="MSLayerGroup">
            <circle id="logo" fill="#FFFFFF" sketch:type="MSShapeGroup" cx="22" cy="22" r="22"></circle>
            <path d="M34.2356436,11.2157303 L10.7910891,11.2157303 C9.90891089,11.2157303 9.18712871,11.9438202 9.18712871,12.8337079 L9.18712871,26.8022472 L9.18712871,26.9101124 L9.08019802,26.9101124 L9.08019802,28.0157303 C9.08019802,29.2831461 10.5237624,30.6853933 11.780198,30.6853933 L18.9980198,30.6853933 L18.9980198,30.6853933 C18.9980198,32.6539326 18.2762376,33.7595506 14.8277228,33.7595506 L14.8277228,34.9191011 L30.760396,34.9191011 L30.760396,33.7595506 C27.3118812,33.7595506 26.590099,32.6808989 26.590099,30.6853933 L26.590099,30.6853933 L33.8079208,30.6853933 C35.0643564,30.6853933 35.7059406,29.2831461 35.7059406,28.0157303 L35.7059406,27.3955056 C35.7594059,27.2067416 35.8128713,27.0179775 35.8128713,26.8292135 L35.8128713,12.8337079 C35.839604,11.9438202 35.1178218,11.2157303 34.2356436,11.2157303 L34.2356436,11.2157303 Z M9.98910891,26.8022472 L9.98910891,12.8337079 C9.98910891,12.4022472 10.3366337,12.0247191 10.7910891,12.0247191 L34.2356436,12.0247191 C34.6633663,12.0247191 35.0376238,12.3752809 35.0376238,12.8337079 L35.0376238,26.8022472 L35.0376238,26.9101124 L10.0158416,26.9101124 C10.0158416,26.8561798 9.98910891,26.8292135 9.98910891,26.8022472 L9.98910891,26.8022472 Z M23.9435644,28.905618 C23.9435644,29.552809 23.4356436,30.0651685 22.7940594,30.0651685 C22.1524752,30.0651685 21.6445545,29.552809 21.6445545,28.905618 C21.6445545,28.7168539 21.6980198,28.5550562 21.7514851,28.3932584 C21.9386139,28.0157303 22.3128713,27.7460674 22.7673267,27.7460674 C23.2217822,27.7460674 23.5960396,28.0157303 23.7831683,28.3932584 C23.9168317,28.5550562 23.9435644,28.7438202 23.9435644,28.905618 L23.9435644,28.905618 Z" id="Shape" fill="#000000" sketch:type="MSShapeGroup"></path>
        </g>
    </g>
</svg>